<?xml version="1.0" encoding="UTF-8"?>
<svg id="Calque_1" data-name="Calque 1" xmlns="http://www.w3.org/2000/svg" viewBox="0 0 733.33 240.46">
  <defs>
    <style>
      .cls-1, .cls-2, .cls-3 {
        fill: #fff;
      }

      .cls-2 {
        fill-rule: evenodd;
      }

      .cls-3 {
        stroke: #fff;
        stroke-miterlimit: 10;
        stroke-width: 2px;
      }
    </style>
  </defs>
  <path class="cls-2" d="M223.08,125.87c-17.84,29.54-33.15,55.42-48.98,80.97-21.15,34.14-55.9,33.88-76.64-.57-26.63-44.25-53.3-88.48-79.26-133.13-10.76-18.5-7.2-39.05,7.52-50.85,15.38-12.34,32.05-12.54,47.81-1.32,6.11,4.35,10.57,11.56,14.63,18.17,15.74,25.57,31.02,51.42,47.81,79.4,16.83-28.1,32.08-54.07,47.84-79.74,21.74-35.4,57.14-35.34,78.28,0,25.42,42.5,50.88,84.99,75.98,127.69,14.65,24.91,10.3,48.11-10.48,59.88-20.71,11.73-40.89,4.83-55.76-19.52-15.62-25.57-30.92-51.34-48.75-81Z"/>
  <path class="cls-2" d="M336.46,52.21c.63-25.73,20.06-44.41,45.8-44.02,26.82.4,45.58,20.41,44.64,47.6-.88,25.43-20.56,44.12-46.16,43.84-26.96-.3-44.95-19.56-44.28-47.41Z"/>
  <rect class="cls-3" x="478.38" y="8.18" width="3.04" height="224.1"/>
  <path class="cls-1" d="M529.4,38.65l9.12,36.77c2,8.07,3.85,15.54,5.13,23.01h.43c1.57-7.32,3.85-15.09,6.13-22.87l11.26-36.91h10.55l10.69,36.16c2.56,8.67,4.56,16.29,6.13,23.61h.43c1.14-7.32,2.99-14.95,5.27-23.46l9.83-36.31h12.4l-22.23,72.33h-11.4l-10.55-34.52c-2.42-8.07-4.42-15.24-6.13-23.76h-.28c-1.71,8.67-3.85,16.14-6.27,23.91l-11.12,34.37h-11.4l-20.81-72.33h12.83Z"/>
  <path class="cls-1" d="M635.29,26.4c4.99,0,8.12-3.59,7.98-8.07,0-4.63-2.99-8.22-7.69-8.22s-7.84,3.59-7.84,8.22,3.14,8.07,7.55,8.07Z"/>
  <rect class="cls-1" x="629.3" y="38.65" width="12.54" height="72.33"/>
  <path class="cls-1" d="M662.65,58.23c0-7.47-.15-13.6-.57-19.58h11.12l.71,11.96h.29c3.42-6.88,11.4-13.6,22.8-13.6,9.55,0,24.37,5.98,24.37,30.79v43.19h-12.54v-41.7c0-11.66-4.13-21.37-15.96-21.37-8.27,0-14.68,6.13-16.82,13.45-.57,1.64-.86,3.88-.86,6.13v43.49h-12.54v-52.76Z"/>
  <g>
    <path class="cls-1" d="M536.13,153.11h-19.55v-7.4h47.6v7.4h-19.65v60.02h-8.39v-60.02Z"/>
    <path class="cls-1" d="M604.61,181.52h-24.99v24.31h27.86v7.3h-36.15v-67.42h34.72v7.3h-26.43v21.31h24.99v7.2Z"/>
    <path class="cls-1" d="M663.18,210.93c-3.05,1.6-9.16,3.2-16.98,3.2-18.13,0-31.77-12-31.77-34.11s13.64-35.41,33.58-35.41c8.01,0,13.07,1.8,15.26,3l-2,7.1c-3.15-1.6-7.63-2.8-12.97-2.8-15.07,0-25.09,10.1-25.09,27.81,0,16.5,9.06,27.11,24.71,27.11,5.05,0,10.21-1.1,13.54-2.8l1.72,6.9Z"/>
    <path class="cls-1" d="M681.88,145.71v28.21h31.1v-28.21h8.39v67.42h-8.39v-31.61h-31.1v31.61h-8.3v-67.42h8.3Z"/>
  </g>
</svg>